<svg width="135" height="40" viewBox="0 0 135 40" fill="none" xmlns="http://www.w3.org/2000/svg">
<g clip-path="url(#clip0_126_484)">
<path d="M7.87516 32.0833C6.19228 32.0833 4.94674 31.715 4.14888 30.9784C3.35103 30.2419 2.95062 29.1531 2.95062 27.7077V12.7541H-0.00439453V9.8312H1.13033C2.05968 9.8312 2.73786 9.63098 3.17373 9.22762C3.60959 8.82426 4.02477 8.21922 4.41779 7.41396L6.1908 3.78955H9.34823V9.8312H14.1959V12.7541H9.34823V28.8301H14.1959V31.2883C13.7438 31.4831 12.943 31.6634 11.7935 31.829C10.4953 32.0074 9.18577 32.0924 7.87516 32.0833Z" fill="#6633FF"/>
<path d="M7.87516 32.0833C6.19228 32.0833 4.94674 31.715 4.14888 30.9784C3.35103 30.2419 2.95062 29.1531 2.95062 27.7077V12.7541H-0.00439453V9.8312H1.13033C2.05968 9.8312 2.73786 9.63098 3.17373 9.22762C3.60959 8.82426 4.02477 8.21922 4.41779 7.41396L6.1908 3.78955H9.34823V9.8312H14.1959V12.7541H9.34823V28.8301H14.1959V31.2883C13.7438 31.4831 12.943 31.6634 11.7935 31.829C10.4953 32.0074 9.18577 32.0924 7.87516 32.0833Z" fill="black" fill-opacity="0.8"/>
<path d="M23.0815 32.1666C20.6958 32.1666 18.9612 31.6181 17.8777 30.521C16.7942 29.424 16.2524 27.8894 16.2524 25.9174C16.2524 21.612 19.4675 19.4588 25.8976 19.4578H28.8526V17.083C28.8526 15.3896 28.53 14.1118 27.8849 13.2496C27.2397 12.3873 26.1188 11.9571 24.5221 11.9591C24.0129 11.9519 23.5042 11.9935 23.0032 12.0833C22.6269 12.1527 22.26 12.265 21.9098 12.418V12.6255C22.2392 12.8073 22.5199 13.0643 22.7284 13.3752C22.9963 13.7357 23.1302 14.2229 23.1302 14.8367C23.1514 15.614 22.8646 16.3687 22.3309 16.9397C21.796 17.5097 21.0011 17.7947 19.9285 17.7947C19.5349 17.8036 19.1438 17.7301 18.781 17.5789C18.4181 17.4278 18.0916 17.2025 17.823 16.9178C17.5422 16.6232 17.323 16.2765 17.1782 15.8978C17.0335 15.5191 16.9659 15.1157 16.9794 14.711C16.9896 14.0099 17.194 13.3249 17.5704 12.7307C18.0174 12.0259 18.6245 11.4339 19.3434 11.0018C20.2497 10.4514 21.2372 10.0441 22.2703 9.79468C23.5863 9.47065 24.9391 9.31593 26.2951 9.33432C29.3565 9.33432 31.6166 9.98028 33.0754 11.2722C34.5342 12.5641 35.2645 14.391 35.2665 16.7527V28.9178H37.793V31.2941C37.2155 31.6076 36.5902 31.8258 35.9417 31.9401C35.1634 32.0942 34.3714 32.1706 33.5777 32.1681C32.0308 32.1681 30.9448 31.8144 30.3109 31.1056C29.6771 30.3968 29.3639 29.5155 29.3639 28.4604V28.3756H29.1023C28.9015 28.857 28.6541 29.318 28.3636 29.7523C28.0525 30.2131 27.6677 30.6208 27.2244 30.9595C26.7121 31.3469 26.1357 31.6436 25.5209 31.8363C24.7305 32.0735 23.9072 32.185 23.0815 32.1666ZM25.481 28.4165C26.5192 28.4165 27.3406 28.1803 27.9454 27.7077C28.5497 27.2371 28.8512 26.4158 28.8512 25.2496V21.9613H26.5787C25.2313 21.9613 24.2266 22.239 23.5646 22.7943C22.9071 23.3511 22.5747 24.1418 22.5747 25.1692V25.8356C22.5747 26.7251 22.8416 27.3779 23.3755 27.794C23.9094 28.21 24.6112 28.4175 25.481 28.4165Z" fill="#6633FF"/>
<path d="M23.0815 32.1666C20.6958 32.1666 18.9612 31.6181 17.8777 30.521C16.7942 29.424 16.2524 27.8894 16.2524 25.9174C16.2524 21.612 19.4675 19.4588 25.8976 19.4578H28.8526V17.083C28.8526 15.3896 28.53 14.1118 27.8849 13.2496C27.2397 12.3873 26.1188 11.9571 24.5221 11.9591C24.0129 11.9519 23.5042 11.9935 23.0032 12.0833C22.6269 12.1527 22.26 12.265 21.9098 12.418V12.6255C22.2392 12.8073 22.5199 13.0643 22.7284 13.3752C22.9963 13.7357 23.1302 14.2229 23.1302 14.8367C23.1514 15.614 22.8646 16.3687 22.3309 16.9397C21.796 17.5097 21.0011 17.7947 19.9285 17.7947C19.5349 17.8036 19.1438 17.7301 18.781 17.5789C18.4181 17.4278 18.0916 17.2025 17.823 16.9178C17.5422 16.6232 17.323 16.2765 17.1782 15.8978C17.0335 15.5191 16.9659 15.1157 16.9794 14.711C16.9896 14.0099 17.194 13.3249 17.5704 12.7307C18.0174 12.0259 18.6245 11.4339 19.3434 11.0018C20.2497 10.4514 21.2372 10.0441 22.2703 9.79468C23.5863 9.47065 24.9391 9.31593 26.2951 9.33432C29.3565 9.33432 31.6166 9.98028 33.0754 11.2722C34.5342 12.5641 35.2645 14.391 35.2665 16.7527V28.9178H37.793V31.2941C37.2155 31.6076 36.5902 31.8258 35.9417 31.9401C35.1634 32.0942 34.3714 32.1706 33.5777 32.1681C32.0308 32.1681 30.9448 31.8144 30.3109 31.1056C29.6771 30.3968 29.3639 29.5155 29.3639 28.4604V28.3756H29.1023C28.9015 28.857 28.6541 29.318 28.3636 29.7523C28.0525 30.2131 27.6677 30.6208 27.2244 30.9595C26.7121 31.3469 26.1357 31.6436 25.5209 31.8363C24.7305 32.0735 23.9072 32.185 23.0815 32.1666ZM25.481 28.4165C26.5192 28.4165 27.3406 28.1803 27.9454 27.7077C28.5497 27.2371 28.8512 26.4158 28.8512 25.2496V21.9613H26.5787C25.2313 21.9613 24.2266 22.239 23.5646 22.7943C22.9071 23.3511 22.5747 24.1418 22.5747 25.1692V25.8356C22.5747 26.7251 22.8416 27.3779 23.3755 27.794C23.9094 28.21 24.6112 28.4175 25.481 28.4165Z" fill="black" fill-opacity="0.8"/>
<path d="M40.0566 28.9163H42.5832V4.71612L40.0566 4.17538V1.79321L48.9867 0.00146484V28.9163H51.5132V31.6668H40.0566V28.9163Z" fill="#6633FF"/>
<path d="M40.0566 28.9163H42.5832V4.71612L40.0566 4.17538V1.79321L48.9867 0.00146484V28.9163H51.5132V31.6668H40.0566V28.9163Z" fill="black" fill-opacity="0.8"/>
<path d="M51.936 38.4991H55.2235V12.3391L51.936 11.9211V10.8381L57.6643 9.92036V13.7201H57.8357C58.3466 12.6221 59.1456 11.6794 60.1495 10.9901C61.2192 10.2273 62.648 9.84436 64.4476 9.84436C67.1997 9.84436 69.3667 10.7885 70.9486 12.6767C72.5305 14.5649 73.3245 17.3416 73.3304 21.0069C73.3304 24.6723 72.5364 27.449 70.9486 29.3372C69.3608 31.2254 67.1938 32.1695 64.4476 32.1695C62.6746 32.1695 61.2419 31.7876 60.1495 31.0238C59.0571 30.2599 58.2859 29.3631 57.8357 28.3332H57.6643V38.4991H61.8014V40H51.936V38.4991ZM63.8137 30.4172C66.0054 30.4172 67.6976 29.7016 68.8905 28.2704C70.0833 26.8391 70.6797 24.9022 70.6797 22.4596V19.5367C70.6797 17.0951 70.0833 15.1577 68.8905 13.7245C67.6976 12.2913 66.0054 11.5781 63.8137 11.585C63.0437 11.5828 62.2776 11.6951 61.5413 11.9182C60.8385 12.1256 60.1765 12.4498 59.5836 12.8769C59.0212 13.2777 58.5476 13.7879 58.1918 14.3763C57.8331 14.9825 57.6506 15.6748 57.6643 16.3771V25.6266C57.6508 26.3283 57.8333 27.0202 58.1918 27.6259C58.5476 28.2134 59.0213 28.7227 59.5836 29.1224C60.1768 29.5489 60.8388 29.8731 61.5413 30.0811C62.2775 30.3052 63.0435 30.4185 63.8137 30.4172Z" fill="#6633FF"/>
<path d="M51.936 38.4991H55.2235V12.3391L51.936 11.9211V10.8381L57.6643 9.92036V13.7201H57.8357C58.3466 12.6221 59.1456 11.6794 60.1495 10.9901C61.2192 10.2273 62.648 9.84436 64.4476 9.84436C67.1997 9.84436 69.3667 10.7885 70.9486 12.6767C72.5305 14.5649 73.3245 17.3416 73.3304 21.0069C73.3304 24.6723 72.5364 27.449 70.9486 29.3372C69.3608 31.2254 67.1938 32.1695 64.4476 32.1695C62.6746 32.1695 61.2419 31.7876 60.1495 31.0238C59.0571 30.2599 58.2859 29.3631 57.8357 28.3332H57.6643V38.4991H61.8014V40H51.936V38.4991ZM63.8137 30.4172C66.0054 30.4172 67.6976 29.7016 68.8905 28.2704C70.0833 26.8391 70.6797 24.9022 70.6797 22.4596V19.5367C70.6797 17.0951 70.0833 15.1577 68.8905 13.7245C67.6976 12.2913 66.0054 11.5781 63.8137 11.585C63.0437 11.5828 62.2776 11.6951 61.5413 11.9182C60.8385 12.1256 60.1765 12.4498 59.5836 12.8769C59.0212 13.2777 58.5476 13.7879 58.1918 14.3763C57.8331 14.9825 57.6506 15.6748 57.6643 16.3771V25.6266C57.6508 26.3283 57.8333 27.0202 58.1918 27.6259C58.5476 28.2134 59.0213 28.7227 59.5836 29.1224C60.1768 29.5489 60.8388 29.8731 61.5413 30.0811C62.2775 30.3052 63.0435 30.4185 63.8137 30.4172Z" fill="black" fill-opacity="0.8"/>
<path d="M84.7528 32.1666C83.4017 32.1883 82.0606 31.9335 80.8137 31.4183C79.659 30.9246 78.6348 30.1745 77.8203 29.2262C76.9482 28.1922 76.295 26.9954 75.8995 25.707C75.4299 24.1813 75.2021 22.5928 75.2243 20.9982C75.2008 19.4101 75.4286 17.8282 75.8995 16.3098C76.2982 15.0284 76.9512 13.8385 77.8203 12.8096C78.6386 11.8615 79.6622 11.1078 80.8152 10.6043C83.3371 9.5775 86.167 9.5775 88.6889 10.6043C89.8416 11.1088 90.8647 11.8636 91.6823 12.8126C92.5502 13.8422 93.203 15.0319 93.6031 16.3127C94.074 17.8311 94.3018 19.413 94.2783 21.0011C94.3005 22.5958 94.0727 24.1842 93.6031 25.7099C93.2063 26.9979 92.5533 28.1944 91.6823 29.2291C90.8678 30.1774 89.8436 30.9275 88.6889 31.4213C87.4425 31.9345 86.1026 32.1883 84.7528 32.1666ZM84.7528 30.6671C85.7668 30.689 86.7733 30.4894 87.7004 30.0826C88.5199 29.7084 89.2455 29.1594 89.825 28.475C90.4232 27.7495 90.8611 26.9082 91.1105 26.0051C91.4032 24.9633 91.5455 23.8858 91.5331 22.8045V19.2006C91.5455 18.1193 91.4032 17.0418 91.1105 16C90.8614 15.0973 90.4235 14.2563 89.825 13.5316C89.2463 12.8463 88.5205 12.2972 87.7004 11.924C86.7663 11.5362 85.7635 11.3365 84.7506 11.3365C83.7376 11.3365 82.7347 11.5362 81.8007 11.924C80.9802 12.2971 80.2539 12.8463 79.6746 13.5316C79.0771 14.257 78.6393 15.0977 78.3891 16C78.0977 17.042 77.9559 18.1195 77.968 19.2006V22.8001C77.9559 23.8813 78.0977 24.9587 78.3891 26.0007C78.6398 26.9033 79.0775 27.7444 79.6746 28.4706C80.2547 29.155 80.9808 29.704 81.8007 30.0782C82.7289 30.487 83.7369 30.6881 84.7528 30.6671Z" fill="#6633FF"/>
<path d="M84.7528 32.1666C83.4017 32.1883 82.0606 31.9335 80.8137 31.4183C79.659 30.9246 78.6348 30.1745 77.8203 29.2262C76.9482 28.1922 76.295 26.9954 75.8995 25.707C75.4299 24.1813 75.2021 22.5928 75.2243 20.9982C75.2008 19.4101 75.4286 17.8282 75.8995 16.3098C76.2982 15.0284 76.9512 13.8385 77.8203 12.8096C78.6386 11.8615 79.6622 11.1078 80.8152 10.6043C83.3371 9.5775 86.167 9.5775 88.6889 10.6043C89.8416 11.1088 90.8647 11.8636 91.6823 12.8126C92.5502 13.8422 93.203 15.0319 93.6031 16.3127C94.074 17.8311 94.3018 19.413 94.2783 21.0011C94.3005 22.5958 94.0727 24.1842 93.6031 25.7099C93.2063 26.9979 92.5533 28.1944 91.6823 29.2291C90.8678 30.1774 89.8436 30.9275 88.6889 31.4213C87.4425 31.9345 86.1026 32.1883 84.7528 32.1666ZM84.7528 30.6671C85.7668 30.689 86.7733 30.4894 87.7004 30.0826C88.5199 29.7084 89.2455 29.1594 89.825 28.475C90.4232 27.7495 90.8611 26.9082 91.1105 26.0051C91.4032 24.9633 91.5455 23.8858 91.5331 22.8045V19.2006C91.5455 18.1193 91.4032 17.0418 91.1105 16C90.8614 15.0973 90.4235 14.2563 89.825 13.5316C89.2463 12.8463 88.5205 12.2972 87.7004 11.924C86.7663 11.5362 85.7635 11.3365 84.7506 11.3365C83.7376 11.3365 82.7347 11.5362 81.8007 11.924C80.9802 12.2971 80.2539 12.8463 79.6746 13.5316C79.0771 14.257 78.6393 15.0977 78.3891 16C78.0977 17.042 77.9559 18.1195 77.968 19.2006V22.8001C77.9559 23.8813 78.0977 24.9587 78.3891 26.0007C78.6398 26.9033 79.0775 27.7444 79.6746 28.4706C80.2547 29.155 80.9808 29.704 81.8007 30.0782C82.7289 30.487 83.7369 30.6881 84.7528 30.6671Z" fill="black" fill-opacity="0.8"/>
<path d="M105.475 32.1666C102.722 32.1666 100.555 31.2225 98.974 29.3343C97.3931 27.4461 96.5992 24.6694 96.5923 21.004C96.5923 17.3377 97.3862 14.561 98.974 12.6737C100.562 10.7865 102.729 9.84242 105.475 9.84144C107.248 9.84144 108.68 10.2234 109.77 10.9872C110.861 11.7511 111.633 12.6469 112.088 13.6748H112.255V2.50056L108.972 2.0855V1.00111L114.699 0.083313V29.6661L117.988 30.084V31.1684L112.255 32.0848V28.2908H112.088C111.578 29.3897 110.779 30.333 109.775 31.0223C108.707 31.7861 107.274 32.1676 105.475 32.1666ZM106.106 30.4129C106.877 30.4152 107.644 30.3029 108.381 30.0797C109.084 29.8709 109.745 29.5468 110.339 29.1209C110.901 28.7192 111.375 28.2085 111.731 27.62C112.087 27.0135 112.268 26.3221 112.255 25.6208V16.3756C112.269 15.6738 112.087 14.9818 111.731 14.3749C111.374 13.7871 110.901 13.277 110.339 12.8754C109.746 12.4489 109.084 12.1248 108.381 11.9167C107.644 11.6934 106.877 11.5811 106.106 11.5835C103.914 11.5835 102.223 12.2986 101.032 13.7289C99.8413 15.1592 99.2439 17.0966 99.24 19.5411V22.464C99.24 24.9095 99.8374 26.8464 101.032 28.2748C102.227 29.7031 103.918 30.4172 106.106 30.4172V30.4129Z" fill="#6633FF"/>
<path d="M105.475 32.1666C102.722 32.1666 100.555 31.2225 98.974 29.3343C97.3931 27.4461 96.5992 24.6694 96.5923 21.004C96.5923 17.3377 97.3862 14.561 98.974 12.6737C100.562 10.7865 102.729 9.84242 105.475 9.84144C107.248 9.84144 108.68 10.2234 109.77 10.9872C110.861 11.7511 111.633 12.6469 112.088 13.6748H112.255V2.50056L108.972 2.0855V1.00111L114.699 0.083313V29.6661L117.988 30.084V31.1684L112.255 32.0848V28.2908H112.088C111.578 29.3897 110.779 30.333 109.775 31.0223C108.707 31.7861 107.274 32.1676 105.475 32.1666ZM106.106 30.4129C106.877 30.4152 107.644 30.3029 108.381 30.0797C109.084 29.8709 109.745 29.5468 110.339 29.1209C110.901 28.7192 111.375 28.2085 111.731 27.62C112.087 27.0135 112.268 26.3221 112.255 25.6208V16.3756C112.269 15.6738 112.087 14.9818 111.731 14.3749C111.374 13.7871 110.901 13.277 110.339 12.8754C109.746 12.4489 109.084 12.1248 108.381 11.9167C107.644 11.6934 106.877 11.5811 106.106 11.5835C103.914 11.5835 102.223 12.2986 101.032 13.7289C99.8413 15.1592 99.2439 17.0966 99.24 19.5411V22.464C99.24 24.9095 99.8374 26.8464 101.032 28.2748C102.227 29.7031 103.918 30.4172 106.106 30.4172V30.4129Z" fill="black" fill-opacity="0.8"/>
<path d="M127.505 32.1666C126.017 32.1666 124.789 31.8962 123.82 31.3555C122.85 30.8118 122.171 30.1863 121.776 29.4556H121.649V31.6653H119.799V25.3752H121.649V26.5093C121.649 27.8246 122.127 28.8477 123.082 29.5784C124.038 30.3091 125.386 30.673 127.128 30.6701C128.901 30.6701 130.263 30.3344 131.215 29.6631C132.166 28.9918 132.642 27.9562 132.643 26.5561C132.643 25.3548 132.286 24.418 131.571 23.7457C130.856 23.0734 129.796 22.5829 128.391 22.274L126.156 21.8151C124.192 21.3709 122.67 20.6703 121.587 19.7136C120.505 18.7568 119.965 17.3626 119.969 15.5309C119.969 13.7011 120.622 12.2938 121.927 11.3087C123.232 10.3237 124.938 9.8317 127.045 9.83267C128.505 9.83267 129.677 10.0685 130.563 10.54C131.448 11.0116 132.045 11.5962 132.352 12.2938H132.524V10.3354H134.375V16.627H132.524V15.1129C132.524 13.8531 132.08 12.909 131.194 12.2777C130.307 11.6463 129.028 11.3336 127.342 11.3336C125.766 11.3336 124.531 11.6483 123.636 12.2777C122.734 12.909 122.289 13.8663 122.289 15.1538C122.289 16.3863 122.66 17.3314 123.403 17.989C124.146 18.6467 125.192 19.129 126.543 19.4359L128.688 19.8933C130.739 20.3376 132.304 21.0313 133.385 21.9744C134.466 22.9176 135.007 24.3045 135.01 26.1352C135.01 27.9094 134.351 29.3582 133.033 30.4816C131.715 31.6049 129.872 32.1666 127.505 32.1666Z" fill="#6633FF"/>
<path d="M127.505 32.1666C126.017 32.1666 124.789 31.8962 123.82 31.3555C122.85 30.8118 122.171 30.1863 121.776 29.4556H121.649V31.6653H119.799V25.3752H121.649V26.5093C121.649 27.8246 122.127 28.8477 123.082 29.5784C124.038 30.3091 125.386 30.673 127.128 30.6701C128.901 30.6701 130.263 30.3344 131.215 29.6631C132.166 28.9918 132.642 27.9562 132.643 26.5561C132.643 25.3548 132.286 24.418 131.571 23.7457C130.856 23.0734 129.796 22.5829 128.391 22.274L126.156 21.8151C124.192 21.3709 122.67 20.6703 121.587 19.7136C120.505 18.7568 119.965 17.3626 119.969 15.5309C119.969 13.7011 120.622 12.2938 121.927 11.3087C123.232 10.3237 124.938 9.8317 127.045 9.83267C128.505 9.83267 129.677 10.0685 130.563 10.54C131.448 11.0116 132.045 11.5962 132.352 12.2938H132.524V10.3354H134.375V16.627H132.524V15.1129C132.524 13.8531 132.08 12.909 131.194 12.2777C130.307 11.6463 129.028 11.3336 127.342 11.3336C125.766 11.3336 124.531 11.6483 123.636 12.2777C122.734 12.909 122.289 13.8663 122.289 15.1538C122.289 16.3863 122.66 17.3314 123.403 17.989C124.146 18.6467 125.192 19.129 126.543 19.4359L128.688 19.8933C130.739 20.3376 132.304 21.0313 133.385 21.9744C134.466 22.9176 135.007 24.3045 135.01 26.1352C135.01 27.9094 134.351 29.3582 133.033 30.4816C131.715 31.6049 129.872 32.1666 127.505 32.1666Z" fill="black" fill-opacity="0.8"/>
</g>
<defs>
<clipPath id="clip0_126_484">
<rect width="135" height="40" fill="white"/>
</clipPath>
</defs>
</svg>
