<svg width="135" height="40" viewBox="0 0 135 40" fill="none" xmlns="http://www.w3.org/2000/svg">
<g clip-path="url(#clip0_128_1240)">
<path d="M7.87516 32.0833C6.19228 32.0833 4.94674 31.715 4.14888 30.9784C3.35103 30.2419 2.95062 29.1531 2.95062 27.7077V12.7541H-0.00439453V9.8312H1.13033C2.05968 9.8312 2.73786 9.63098 3.17373 9.22762C3.60959 8.82426 4.02477 8.21922 4.41779 7.41396L6.1908 3.78955H9.34823V9.8312H14.1959V12.7541H9.34823V28.8301H14.1959V31.2883C13.7438 31.4831 12.943 31.6634 11.7935 31.829C10.4953 32.0074 9.18578 32.0924 7.87516 32.0833V32.0833Z" fill="white"/>
<path d="M23.0815 32.1668C20.6958 32.1668 18.9612 31.6182 17.8777 30.5212C16.7942 29.4241 16.2524 27.8896 16.2524 25.9176C16.2524 21.6122 19.4675 19.4589 25.8976 19.458H28.8526V17.0831C28.8526 15.3898 28.53 14.112 27.8849 13.2497C27.2397 12.3875 26.1188 11.9573 24.5221 11.9592C24.0129 11.952 23.5042 11.9937 23.0032 12.0835C22.6269 12.1528 22.26 12.2651 21.9098 12.4181V12.6257C22.2392 12.8074 22.5199 13.0645 22.7284 13.3754C22.9963 13.7359 23.1302 14.223 23.1302 14.8368C23.1514 15.6142 22.8646 16.3689 22.3309 16.9399C21.796 17.5098 21.0011 17.7948 19.9285 17.7948C19.5349 17.8037 19.1438 17.7302 18.781 17.5791C18.4181 17.428 18.0916 17.2027 17.823 16.918C17.5422 16.6234 17.323 16.2767 17.1782 15.898C17.0335 15.5192 16.9659 15.1159 16.9794 14.7112C16.9896 14.01 17.194 13.3251 17.5704 12.7309C18.0174 12.0261 18.6245 11.4341 19.3434 11.002C20.2497 10.4516 21.2372 10.0443 22.2703 9.79483C23.5863 9.47081 24.9391 9.31608 26.2951 9.33447C29.3565 9.33447 31.6166 9.98044 33.0754 11.2724C34.5342 12.5643 35.2645 14.3911 35.2665 16.7528V28.918H37.793V31.2943C37.2155 31.6077 36.5902 31.8259 35.9417 31.9402C35.1634 32.0943 34.3714 32.1707 33.5777 32.1682C32.0308 32.1682 30.9448 31.8146 30.3109 31.1058C29.6771 30.397 29.3639 29.5157 29.3639 28.4605V28.3758H29.1023C28.9015 28.8571 28.6541 29.3182 28.3636 29.7525C28.0525 30.2132 27.6677 30.6209 27.2244 30.9596C26.7121 31.3471 26.1357 31.6438 25.5209 31.8365C24.7305 32.0737 23.9072 32.1852 23.0815 32.1668V32.1668ZM25.481 28.4167C26.5192 28.4167 27.3406 28.1804 27.9454 27.7079C28.5497 27.2373 28.8512 26.416 28.8512 25.2497V21.9614H26.5787C25.2313 21.9614 24.2266 22.2391 23.5646 22.7945C22.9071 23.3513 22.5747 24.1419 22.5747 25.1693V25.8358C22.5747 26.7253 22.8416 27.3781 23.3755 27.7941C23.9094 28.2101 24.6112 28.4177 25.481 28.4167V28.4167Z" fill="white"/>
<path d="M40.0566 28.9163H42.5832V4.71612L40.0566 4.17538V1.79321L48.9867 0.00146484V28.9163H51.5132V31.6668H40.0566V28.9163Z" fill="white"/>
<path d="M51.936 38.499H55.2235V12.3389L51.936 11.921V10.838L57.6643 9.92023V13.72H57.8357C58.3466 12.6219 59.1456 11.6793 60.1495 10.99C61.2192 10.2271 62.648 9.84424 64.4476 9.84424C67.1997 9.84424 69.3667 10.7883 70.9486 12.6765C72.5305 14.5647 73.3245 17.3415 73.3304 21.0068C73.3304 24.6722 72.5364 27.4489 70.9486 29.3371C69.3608 31.2253 67.1938 32.1694 64.4476 32.1694C62.6746 32.1694 61.2419 31.7875 60.1495 31.0236C59.0571 30.2598 58.2859 29.3629 57.8357 28.3331H57.6643V38.499H61.8014V39.9999H51.936V38.499ZM63.8137 30.4171C66.0054 30.4171 67.6976 29.7015 68.8905 28.2703C70.0833 26.839 70.6797 24.9021 70.6797 22.4595V19.5366C70.6797 17.095 70.0833 15.1576 68.8905 13.7244C67.6976 12.2912 66.0054 11.578 63.8137 11.5848C63.0437 11.5826 62.2776 11.695 61.5413 11.918C60.8385 12.1255 60.1765 12.4497 59.5836 12.8768C59.0212 13.2775 58.5476 13.7878 58.1918 14.3762C57.8331 14.9824 57.6506 15.6747 57.6643 16.3769V25.6265C57.6508 26.3282 57.8333 27.0201 58.1918 27.6258C58.5476 28.2133 59.0213 28.7226 59.5836 29.1223C60.1768 29.5488 60.8388 29.8729 61.5413 30.081C62.2775 30.3051 63.0435 30.4184 63.8137 30.4171V30.4171Z" fill="white"/>
<path d="M84.7528 32.1664C83.4017 32.1881 82.0606 31.9333 80.8137 31.4181C79.659 30.9244 78.6348 30.1743 77.8203 29.2259C76.9482 28.192 76.295 26.9952 75.8995 25.7068C75.4299 24.1811 75.2021 22.5926 75.2243 20.998C75.2008 19.4099 75.4286 17.828 75.8995 16.3096C76.2982 15.0282 76.9512 13.8383 77.8203 12.8094C78.6386 11.8613 79.6622 11.1076 80.8152 10.6041C83.3371 9.57728 86.167 9.57728 88.6889 10.6041C89.8416 11.1086 90.8647 11.8633 91.6823 12.8123C92.5502 13.842 93.203 15.0317 93.603 16.3125C94.074 17.8309 94.3018 19.4128 94.2783 21.0009C94.3005 22.5956 94.0727 24.184 93.603 25.7097C93.2063 26.9976 92.5533 28.1942 91.6823 29.2289C90.8678 30.1772 89.8436 30.9273 88.6889 31.421C87.4425 31.9343 86.1026 32.188 84.7528 32.1664V32.1664ZM84.7528 30.6669C85.7668 30.6888 86.7733 30.4892 87.7004 30.0824C88.5199 29.7082 89.2455 29.1592 89.825 28.4748C90.4232 27.7493 90.8611 26.9079 91.1105 26.0049C91.4032 24.9631 91.5455 23.8855 91.5331 22.8043V19.2004C91.5455 18.1191 91.4032 17.0416 91.1105 15.9998C90.8614 15.0971 90.4235 14.2561 89.825 13.5314C89.2463 12.8461 88.5205 12.2969 87.7004 11.9238C86.7663 11.536 85.7635 11.3363 84.7506 11.3363C83.7376 11.3363 82.7347 11.536 81.8007 11.9238C80.9802 12.2969 80.2539 12.8461 79.6746 13.5314C79.0771 14.2567 78.6393 15.0975 78.3891 15.9998C78.0977 17.0418 77.9559 18.1192 77.968 19.2004V22.7999C77.9559 23.881 78.0977 24.9585 78.3891 26.0005C78.6398 26.9031 79.0775 27.7442 79.6746 28.4704C80.2547 29.1548 80.9808 29.7038 81.8007 30.078C82.7289 30.4868 83.7369 30.6879 84.7528 30.6669V30.6669Z" fill="white"/>
<path d="M105.475 32.1668C102.722 32.1668 100.555 31.2227 98.974 29.3345C97.3931 27.4463 96.5992 24.6695 96.5923 21.0042C96.5923 17.3379 97.3862 14.5611 98.974 12.6739C100.562 10.7867 102.729 9.8426 105.475 9.84162C107.248 9.84162 108.68 10.2236 109.77 10.9874C110.861 11.7513 111.633 12.6471 112.088 13.675H112.255V2.50074L108.972 2.08569V1.00129L114.699 0.0834961V29.6662L117.988 30.0842V31.1686L112.255 32.0849V28.291H112.088C111.578 29.3899 110.779 30.3332 109.775 31.0225C108.707 31.7863 107.274 32.1678 105.475 32.1668ZM106.106 30.413C106.877 30.4154 107.644 30.3031 108.381 30.0798C109.084 29.8711 109.745 29.547 110.339 29.1211C110.901 28.7194 111.375 28.2087 111.731 27.6202C112.087 27.0137 112.268 26.3222 112.255 25.6209V16.3758C112.269 15.674 112.087 14.982 111.731 14.3751C111.374 13.7873 110.901 13.2772 110.339 12.8756C109.746 12.4491 109.084 12.1249 108.381 11.9169C107.644 11.6936 106.877 11.5813 106.106 11.5837C103.914 11.5837 102.223 12.2988 101.032 13.7291C99.8413 15.1594 99.2439 17.0968 99.24 19.5413V22.4642C99.24 24.9097 99.8374 26.8466 101.032 28.2749C102.227 29.7033 103.918 30.4174 106.106 30.4174V30.413Z" fill="white"/>
<path d="M127.505 32.1665C126.017 32.1665 124.789 31.8961 123.82 31.3554C122.85 30.8117 122.171 30.1862 121.776 29.4555H121.649V31.6652H119.799V25.3751H121.649V26.5092C121.649 27.8245 122.127 28.8475 123.082 29.5782C124.038 30.309 125.386 30.6729 127.128 30.6699C128.901 30.6699 130.263 30.3343 131.215 29.663C132.166 28.9917 132.642 27.956 132.643 26.5559C132.643 25.3546 132.286 24.4178 131.571 23.7456C130.856 23.0733 129.796 22.5827 128.391 22.2739L126.156 21.815C124.192 21.3707 122.67 20.6702 121.587 19.7134C120.505 18.7566 119.965 17.3624 119.969 15.5307C119.969 13.701 120.622 12.2936 121.927 11.3086C123.232 10.3236 124.938 9.83155 127.045 9.83252C128.505 9.83252 129.677 10.0683 130.563 10.5399C131.448 11.0114 132.045 11.596 132.352 12.2936H132.524V10.3353H134.375V16.6268H132.524V15.1128C132.524 13.853 132.08 12.9089 131.194 12.2775C130.307 11.6462 129.028 11.3334 127.342 11.3334C125.766 11.3334 124.531 11.6481 123.636 12.2775C122.734 12.9089 122.289 13.8661 122.289 15.1537C122.289 16.3862 122.66 17.3312 123.403 17.9889C124.146 18.6466 125.192 19.1288 126.543 19.4357L128.688 19.8932C130.739 20.3375 132.304 21.0312 133.385 21.9743C134.466 22.9174 135.007 24.3043 135.01 26.135C135.01 27.9092 134.351 29.358 133.033 30.4814C131.715 31.6048 129.872 32.1665 127.505 32.1665Z" fill="white"/>
</g>
<defs>
<clipPath id="clip0_128_1240">
<rect width="135" height="40" fill="white"/>
</clipPath>
</defs>
</svg>
